<?xml version="1.0" encoding="utf-8"?>
<!-- Generator: Adobe Illustrator 16.0.0, SVG Export Plug-In . SVG Version: 6.00 Build 0)  -->
<svg version="1.2" baseProfile="tiny" id="Capa_1" xmlns="http://www.w3.org/2000/svg" xmlns:xlink="http://www.w3.org/1999/xlink"
	 x="0px" y="0px" width="512px" height="512px" viewBox="0 0 512 512" xml:space="preserve">
<g>
	<path d="M477.656,133.763c-22.892-39.223-53.943-70.276-93.163-93.166C345.268,17.706,302.446,6.264,255.996,6.264
		c-46.444,0-89.28,11.446-128.497,34.333C88.276,63.485,57.226,94.54,34.333,133.763C11.445,172.984,0,215.814,0,262.252
		c0,55.783,16.274,105.944,48.832,150.496c32.555,44.557,74.609,75.388,126.162,92.497c6.001,1.113,10.443,0.33,13.332-2.33
		c2.89-2.665,4.332-6.001,4.332-9.996c0-0.667-0.057-6.664-0.168-17.999c-0.114-11.336-0.168-21.225-0.168-29.662l-7.667,1.327
		c-4.889,0.896-11.055,1.274-18.5,1.167c-7.441-0.104-15.167-0.884-23.165-2.334c-8.002-1.437-15.445-4.771-22.334-9.992
		c-6.886-5.223-11.774-12.058-14.664-20.496l-3.333-7.671c-2.222-5.106-5.72-10.779-10.498-16.997
		c-4.778-6.225-9.61-10.443-14.499-12.665l-2.334-1.671c-1.555-1.109-2.998-2.449-4.332-4.003s-2.332-3.109-2.998-4.667
		c-0.668-1.559-0.115-2.836,1.666-3.84c1.78-1.002,4.998-1.489,9.666-1.489l6.664,0.995c4.445,0.892,9.942,3.553,16.5,7.999
		c6.555,4.443,11.942,10.22,16.165,17.328c5.114,9.113,11.274,16.058,18.5,20.836c7.22,4.778,14.499,7.163,21.831,7.163
		s13.664-0.555,19-1.66c5.329-1.112,10.33-2.783,14.999-5.004c1.999-14.895,7.444-26.337,16.33-34.335
		c-12.665-1.331-24.051-3.336-34.165-6.001c-10.108-2.669-20.554-7-31.329-13.006c-10.782-5.998-19.727-13.445-26.835-22.33
		c-7.11-8.889-12.945-20.559-17.497-35c-4.555-14.445-6.832-31.11-6.832-49.998c0-26.893,8.779-49.778,26.335-68.668
		c-8.224-20.219-7.447-42.884,2.331-67.995c6.444-2.002,16.002-0.5,28.667,4.499c12.667,5,21.941,9.284,27.832,12.835
		c5.892,3.55,10.611,6.559,14.168,8.999c20.67-5.775,42.001-8.664,63.999-8.664s43.334,2.889,64.005,8.664l12.666-7.996
		c8.662-5.335,18.891-10.225,30.661-14.669c11.777-4.442,20.783-5.666,27.008-3.664c9.996,25.111,10.888,47.776,2.661,67.995
		c17.555,18.89,26.337,41.781,26.337,68.668c0,18.887-2.285,35.605-6.833,50.163c-4.553,14.559-10.438,26.218-17.658,35
		c-7.228,8.78-16.229,16.17-27.005,22.166c-10.778,6-21.228,10.332-31.336,13c-10.112,2.67-21.499,4.676-34.164,6.008
		c11.552,9.996,17.328,25.775,17.328,47.329v70.326c0,3.995,1.39,7.331,4.17,9.996c2.778,2.66,7.164,3.444,13.165,2.329
		c51.56-17.107,93.615-47.939,126.168-92.495c32.55-44.553,48.83-94.714,48.83-150.496
		C511.985,215.811,500.533,172.984,477.656,133.763z"/>
</g>
</svg>
