<?xml version="1.0" encoding="utf-8"?>
<!-- Generator: Adobe Illustrator 16.0.0, SVG Export Plug-In . SVG Version: 6.00 Build 0)  -->
<svg version="1.2" baseProfile="tiny" id="Layer_1" xmlns="http://www.w3.org/2000/svg" xmlns:xlink="http://www.w3.org/1999/xlink"
	 x="0px" y="0px" width="669px" height="277px" viewBox="-8.5 255.5 669 277" xml:space="preserve">
<g>
	<path fill="#FF0000" d="M191.039,349.084c-2.25-8.355-8.837-14.943-17.192-17.192c-15.264-4.177-76.319-4.177-76.319-4.177
		s-61.055,0-76.319,4.017c-8.193,2.25-14.942,8.998-17.191,17.353C0,364.348,0,396,0,396s0,31.813,4.017,46.916
		c2.249,8.355,8.837,14.942,17.191,17.192c15.425,4.177,76.319,4.177,76.319,4.177s61.056,0,76.319-4.017
		c8.355-2.249,14.942-8.837,17.192-17.191c4.017-15.264,4.017-46.917,4.017-46.917S195.217,364.348,191.039,349.084z"/>
	<polygon fill="#FFFFFF" points="78.086,425.242 128.859,396 78.086,366.758 	"/>
</g>
<g>
	<g>
		<path d="M283.265,452.074c-3.856-2.57-6.588-6.587-8.194-12.211c-1.606-5.463-2.41-12.854-2.41-21.852v-12.371
			c0-9.159,0.964-16.549,2.731-22.173c1.928-5.624,4.82-9.641,8.677-12.211c4.017-2.571,9.158-3.856,15.585-3.856
			c6.266,0,11.407,1.285,15.264,3.856c3.855,2.571,6.587,6.749,8.354,12.211s2.731,12.854,2.731,22.173v12.371
			c0,9.158-0.803,16.389-2.57,22.013c-1.768,5.463-4.499,9.64-8.355,12.211c-3.855,2.57-9.158,3.856-15.745,3.856
			C292.584,455.931,287.121,454.646,283.265,452.074z M304.955,438.578c1.125-2.731,1.606-7.391,1.606-13.657V398.25
			c0-6.106-0.481-10.605-1.606-13.497s-2.892-4.177-5.623-4.177c-2.571,0-4.499,1.446-5.463,4.177
			c-1.125,2.892-1.606,7.391-1.606,13.497v26.671c0,6.267,0.481,10.926,1.606,13.657c0.964,2.731,2.892,4.178,5.623,4.178
			C302.064,442.756,303.83,441.471,304.955,438.578z"/>
		<path d="M579.865,418.173v4.338c0,5.463,0.16,9.641,0.481,12.372s0.965,4.82,2.089,5.944c0.964,1.286,2.571,1.929,4.82,1.929
			c2.893,0,4.82-1.125,5.945-3.374c1.124-2.25,1.606-5.945,1.768-11.247l16.549,0.964c0.16,0.803,0.16,1.768,0.16,3.053
			c0,7.873-2.088,13.817-6.427,17.674c-4.338,3.856-10.443,5.784-18.316,5.784c-9.479,0-16.067-3.053-19.923-8.998
			c-3.856-5.944-5.784-15.103-5.784-27.635v-14.943c0-12.854,1.928-22.172,5.944-28.117s10.766-8.837,20.245-8.837
			c6.587,0,11.729,1.285,15.264,3.695c3.534,2.41,5.944,6.266,7.391,11.247c1.446,5.142,2.089,12.211,2.089,21.209v14.621h-32.295
			V418.173z M582.276,382.182c-0.964,1.286-1.607,3.213-1.929,5.945s-0.481,6.909-0.481,12.533v6.105h14.139v-6.105
			c0-5.463-0.16-9.641-0.481-12.533s-1.125-4.82-2.089-5.945c-0.964-1.125-2.571-1.767-4.499-1.767
			C584.686,380.254,583.24,380.897,582.276,382.182z"/>
		<path d="M236.349,416.566l-21.852-79.212h19.12l7.712,35.83c1.928,8.837,3.374,16.389,4.338,22.655h0.482
			c0.643-4.499,2.089-11.89,4.338-22.494l8.034-35.991h19.119l-22.172,79.212v37.918h-18.96v-37.918H236.349z"/>
		<path d="M388.184,369.007v85.639H373.08l-1.606-10.444h-0.482c-4.017,7.873-10.283,11.891-18.478,11.891
			c-5.623,0-9.801-1.929-12.532-5.624s-4.017-9.479-4.017-17.513v-63.948h19.28v62.823c0,3.855,0.482,6.587,1.286,8.194
			c0.803,1.606,2.249,2.41,4.177,2.41c1.607,0,3.214-0.482,4.82-1.607c1.606-0.964,2.731-2.249,3.374-3.855v-67.965H388.184z"/>
		<path d="M486.997,369.007v85.639h-15.104l-1.606-10.444h-0.482c-4.017,7.873-10.283,11.891-18.478,11.891
			c-5.623,0-9.801-1.929-12.532-5.624s-4.017-9.479-4.017-17.513v-63.948h19.28v62.823c0,3.855,0.482,6.587,1.286,8.194
			c0.803,1.606,2.249,2.41,4.177,2.41c1.607,0,3.214-0.482,4.82-1.607c1.606-0.964,2.731-2.249,3.374-3.855v-67.965H486.997z"/>
		<path d="M440.563,352.94h-19.12v101.544h-18.799V352.94h-19.12v-15.585h57.039V352.94z"/>
		<path d="M550.783,382.664c-1.125-5.463-3.053-9.319-5.623-11.729c-2.571-2.41-6.267-3.695-10.766-3.695
			c-3.534,0-6.908,0.964-9.961,3.053c-3.053,1.928-5.463,4.66-7.07,7.873h-0.16v-45.149h-18.639v121.468h15.907l1.928-8.033h0.482
			c1.445,2.892,3.695,5.142,6.748,6.909c3.053,1.606,6.267,2.57,9.962,2.57c6.587,0,11.247-3.053,14.3-8.998
			c3.053-5.944,4.659-15.424,4.659-28.117v-13.497C552.391,395.518,551.908,387.966,550.783,382.664z M533.11,417.53
			c0,6.266-0.321,11.086-0.803,14.621c-0.482,3.534-1.446,6.105-2.571,7.552c-1.285,1.445-2.892,2.249-4.82,2.249
			c-1.606,0-3.053-0.321-4.338-1.125c-1.285-0.803-2.41-1.928-3.214-3.374v-48.522c0.643-2.25,1.768-4.178,3.374-5.784
			c1.607-1.446,3.375-2.25,5.142-2.25c1.929,0,3.535,0.803,4.499,2.25c1.125,1.606,1.768,4.177,2.249,7.712
			c0.482,3.695,0.644,8.837,0.644,15.425v11.247H533.11z"/>
	</g>
</g>
</svg>
